<svg width="1280" height="720" xmlns="http://www.w3.org/2000/svg" xmlns:xlink="http://www.w3.org/1999/xlink" overflow="hidden"><defs><clipPath id="clip0"><rect x="0" y="0" width="1280" height="720"/></clipPath></defs><g clip-path="url(#clip0)"><rect x="0" y="0" width="1280" height="720" fill="#FFFFFF"/><path d="M143.5 240C143.5 196.093 179.093 160.5 223 160.5 266.907 160.5 302.5 196.093 302.5 240 302.5 283.907 266.907 319.5 223 319.5 179.093 319.5 143.5 283.907 143.5 240Z" stroke="#2F528F" stroke-width="3" stroke-miterlimit="8" fill="#FFFFFF" fill-rule="evenodd"/><path d="M447.5 240C447.5 196.093 483.093 160.5 527 160.5 570.907 160.5 606.5 196.093 606.5 240 606.5 283.907 570.907 319.5 527 319.5 483.093 319.5 447.5 283.907 447.5 240Z" stroke="#2F528F" stroke-width="3" stroke-miterlimit="8" fill="#FFFFFF" fill-rule="evenodd"/><path d="M447.5 493C447.5 449.093 483.093 413.5 527 413.5 570.907 413.5 606.5 449.093 606.5 493 606.5 536.907 570.907 572.5 527 572.5 483.093 572.5 447.5 536.907 447.5 493Z" stroke="#2F528F" stroke-width="3" stroke-miterlimit="8" fill="#FFFFFF" fill-rule="evenodd"/><path d="M143.5 493C143.5 449.093 179.093 413.5 223 413.5 266.907 413.5 302.5 449.093 302.5 493 302.5 536.907 266.907 572.5 223 572.5 179.093 572.5 143.5 536.907 143.5 493Z" stroke="#2F528F" stroke-width="3" stroke-miterlimit="8" fill="#FFFFFF" fill-rule="evenodd"/><path d="M53.5915 140.003 76.106 141.379 87.0107 142.256 97.558 143.323 107.565 144.771 116.839 146.6 125.399 148.883 132.941 151.759 139.431 155.293 144.975 159.355 149.618 163.933 153.599 168.942 156.923 174.184 159.849 179.716 161.794 184.044 159.057 185.274 157.132 180.99 157.174 181.076 154.299 175.639 154.358 175.741 151.108 170.616 151.201 170.746 147.326 165.871 147.447 166.006 142.947 161.568 143.114 161.71 137.739 157.773 137.908 157.88 131.595 154.442 131.778 154.527 124.403 151.714 124.551 151.762 116.114 149.512 116.21 149.534 107.022 147.722 107.098 147.735 97.1603 146.297 97.224 146.305 86.724 145.242 86.7547 145.245 75.8798 144.37 75.9086 144.372 53.4086 142.997ZM163.915 181.446 163.5 191.5 155.706 185.136Z" fill="#2F528F"/><path d="M294.662 209.256 310.19 198.8 318.134 193.945 326.412 189.585 334.96 185.849 343.856 182.862 353.283 180.888 363.152 180.06 373.636 180.441 384.517 182.023 395.866 184.482 407.502 187.816 419.429 191.708 431.532 196.16 449.059 203.001 447.968 205.795 430.455 198.96 430.482 198.97 418.42 194.533 418.472 194.551 406.597 190.676 406.649 190.692 395.087 187.38 395.182 187.404 383.932 184.966 384.034 184.984 373.284 183.422 373.446 183.437 363.133 183.062 363.313 183.057 353.625 183.87 353.808 183.843 344.558 185.781 344.727 185.735 335.977 188.672 336.101 188.625 327.663 192.312 327.762 192.265 319.574 196.577 319.657 196.53 311.782 201.342 311.838 201.307 296.338 211.744ZM448.752 199.661 455.5 207.125 445.48 208.045Z" fill="#2F528F"/><path d="M574.725 301.634 582.434 312.54 586.043 318.237 589.285 324.149 592.031 330.408 594.144 337.069 595.491 344.121 596.003 351.741 595.556 359.844 594.225 368.467 592.204 377.432 589.56 386.75 586.419 396.362 582.906 406.147 577.962 419.035 575.161 417.96 580.1 405.088 580.088 405.118 583.588 395.368 583.574 395.409 586.699 385.847 586.682 385.903 589.307 376.653 589.287 376.733 591.287 367.858 591.268 367.959 592.58 359.459 592.565 359.605 593.002 351.668 593.003 351.851 592.503 344.413 592.527 344.594 591.214 337.719 591.258 337.891 589.195 331.391 589.251 331.54 586.564 325.415 586.622 325.534 583.435 319.721 583.483 319.803 579.92 314.178 579.963 314.241 572.275 303.366ZM581.3 418.709 573.875 425.5 572.897 415.485Z" fill="#2F528F"/><path d="M444.126 498.863 426.423 506.995 417.569 510.826 408.642 514.283 399.759 517.37 390.851 519.834 381.929 521.669 373.05 522.747 364.166 523.001 355.355 522.494 346.563 521.292 337.799 519.527 329.05 517.387 320.377 514.873 310.194 511.638 311.102 508.779 321.267 512.008 321.23 511.997 329.855 514.497 329.794 514.481 338.481 516.606 338.421 516.592 347.109 518.342 347.016 518.326 355.703 519.514 355.586 519.503 364.274 520.003 364.145 520.001 372.895 519.751 372.757 519.761 381.507 518.698 381.385 518.718 390.198 516.906 390.1 516.929 398.913 514.492 398.82 514.521 407.633 511.458 407.583 511.476 416.458 508.039 416.404 508.061 425.217 504.248 425.186 504.262 442.874 496.137ZM310.715 514.951 303.5 507.938 313.44 506.374Z" fill="#2F528F"/><path d="M188.224 423.289 179.399 409.018 175.25 401.79 171.409 394.611 167.996 387.343 165.142 380.049 162.978 372.728 161.572 365.317 161.061 357.901 161.316 350.441 162.269 343.004 163.789 335.596 165.744 328.153 168.012 320.721 170.675 313.087 173.508 314.076 170.854 321.682 170.872 321.625 168.622 329 168.638 328.944 166.701 336.319 166.719 336.239 165.219 343.551 165.238 343.441 164.3 350.753 164.312 350.614 164.062 357.926 164.059 357.772 164.559 365.022 164.536 364.846 165.911 372.096 165.876 371.95 168.001 379.137 167.959 379.016 170.772 386.203 170.733 386.112 174.108 393.3 174.073 393.23 177.885 400.355 177.864 400.316 181.989 407.503 181.963 407.461 190.776 421.711ZM167.349 313.515 174.563 306.5 175.846 316.48Z" fill="#2F528F"/><text font-family="Times LT Pro,Times LT Pro_MSFontService,sans-serif" font-weight="400" font-size="24" transform="translate(209.564 210)">S0<tspan font-size="24" x="-28.5" y="29">L</tspan><tspan font-size="16" x="-13.8333" y="34">A</tspan><tspan font-size="24" x="3.66667" y="29">= red</tspan><tspan font-size="24" x="-39.42" y="58">L</tspan><tspan font-size="16" x="-24.7533" y="63">B</tspan><tspan font-size="24" x="-8.08667" y="58">= green</tspan><tspan font-size="24" x="304" y="0">S1</tspan><tspan font-size="24" x="275.5" y="29">L</tspan><tspan font-size="16" x="290.167" y="34">A</tspan><tspan font-size="24" x="307.667" y="29">= red</tspan><tspan font-size="24" x="258.58" y="58">L</tspan><tspan font-size="16" x="273.247" y="63">B</tspan><tspan font-size="24" x="289.913" y="58">= yellow</tspan><tspan font-size="24" x="303.997" y="260">S2</tspan><tspan font-size="24" x="264.163" y="289">L</tspan><tspan font-size="16" x="278.83" y="294">A</tspan><tspan font-size="24" x="296.33" y="289">= green</tspan><tspan font-size="24" x="275.91" y="318">L</tspan><tspan font-size="16" x="290.577" y="323">B</tspan><tspan font-size="24" x="307.243" y="318">= red</tspan><tspan font-size="24" x="1.1978" y="260">S3</tspan><tspan font-size="24" x="-44.6355" y="289">L</tspan><tspan font-size="16" x="-29.9689" y="294">A</tspan><tspan font-size="24" x="-12.4689" y="289">= yellow</tspan><tspan font-size="24" x="-26.8889" y="318">L</tspan><tspan font-size="16" x="-12.2222" y="323">B</tspan><tspan font-size="24" x="4.44446" y="318">= red</tspan><tspan font-size="24" x="-152.535" y="-77">reset</tspan></text><rect x="693.5" y="314.5" width="508" height="46" stroke="#2F528F" stroke-width="3" stroke-miterlimit="8" fill="none"/><rect x="931.5" y="191.5" width="46" height="306" stroke="#2F528F" stroke-width="3" stroke-miterlimit="8" fill="none"/><text font-family="Times LT Pro,Times LT Pro_MSFontService,sans-serif" font-weight="400" font-size="24" transform="translate(898.512 344)">L<tspan font-size="16" x="14.6666" y="5">A</tspan><tspan font-size="24" x="84.8001" y="1">L</tspan><tspan font-size="16" x="99.4667" y="6">A</tspan><tspan font-size="24" x="46.2859" y="-40">L</tspan><tspan font-size="16" x="60.9525" y="-35">B</tspan><tspan font-size="24" x="46.2859" y="38">L</tspan><tspan font-size="16" x="60.9525" y="43">B</tspan></text><rect x="907.5" y="174.5" width="94" height="42" stroke="#FFFFFF" stroke-width="1.33333" stroke-miterlimit="8" fill="#FFFFFF"/><rect x="910.5" y="488.5" width="93" height="42" stroke="#FFFFFF" stroke-width="1.33333" stroke-miterlimit="8" fill="#FFFFFF"/><rect x="674.5" y="292.5" width="81" height="93" stroke="#FFFFFF" stroke-width="1.33333" stroke-miterlimit="8" fill="#FFFFFF"/><rect x="1137.5" y="296.5" width="70" height="94" stroke="#FFFFFF" stroke-width="1.33333" stroke-miterlimit="8" fill="#FFFFFF"/><path d="M0 0 119.429 0.000104987" stroke="#2F528F" stroke-width="3" stroke-miterlimit="8" stroke-dasharray="12 9" fill="none" fill-rule="evenodd" transform="matrix(1 0 0 -1 755.5 338.5)"/><path d="M0 0 119.429 0.000104987" stroke="#2F528F" stroke-width="3" stroke-miterlimit="8" stroke-dasharray="12 9" fill="none" fill-rule="evenodd" transform="matrix(1 0 0 -1 1020.5 337.5)"/><path d="M954.5 216.5 954.5 283.381" stroke="#2F528F" stroke-width="3" stroke-miterlimit="8" stroke-dasharray="12 9" fill="none" fill-rule="evenodd"/><path d="M954.5 395.5 954.5 471.071" stroke="#2F528F" stroke-width="3" stroke-miterlimit="8" stroke-dasharray="12 9" fill="none" fill-rule="evenodd"/></g></svg>